<svg id="Layer_1" data-name="Layer 1" xmlns="http://www.w3.org/2000/svg" viewBox="0 0 134.15 7.68"><defs><style>.cls-1{fill:#fff;}</style></defs><path class="cls-1" d="M0,7.54V.14H4.89V1.5H1.63V3.3H4V4.59H1.63v3Z"/><path class="cls-1" d="M6.49,4.71V.14H8.12V4.67c0,1.07.41,1.67,1.38,1.67s1.36-.59,1.36-1.67V.14h1.6V4.7a2.66,2.66,0,0,1-3,3A2.66,2.66,0,0,1,6.49,4.71Z"/><path class="cls-1" d="M14.61,7.54V.14h1.63V6.22H19.5V7.54Z"/><path class="cls-1" d="M21.22,7.54V.14h4.89V1.5H22.85V3.3h2.32V4.59H22.85v3Z"/><path class="cls-1" d="M27.91,7.54V.14h1.62v7.4Z"/><path class="cls-1" d="M31.88,7.54V.14h1.63V6.22h3.26V7.54Z"/><path class="cls-1" d="M38.49,7.54V.14h1.63V6.22h3.26V7.54Z"/><path class="cls-1" d="M45.18,7.54V.14H46.8v7.4Z"/><path class="cls-1" d="M49.15,7.54V.14h1.63l3.1,4.72h0V.14h1.5v7.4H53.9L50.67,2.78h0V7.54Z"/><path class="cls-1" d="M57.32,3.81C57.32,1.49,58.61,0,60.69,0a2.79,2.79,0,0,1,3,2.37l-1.49.41c-.31-1-.78-1.43-1.51-1.43S59,1.7,59,3.78s1,2.59,1.79,2.59A1.49,1.49,0,0,0,62.27,5H61V3.83h2.84V7.54H62.51v-1h0a2,2,0,0,1-1.93,1.16C58.32,7.68,57.32,6,57.32,3.81Z"/><path class="cls-1" d="M70.56,1.91l-.38,1.32h.76l-.08.31H70.1l-.84,2.88a3.09,3.09,0,0,0-.14.6.17.17,0,0,0,0,.13.12.12,0,0,0,.09,0A.57.57,0,0,0,69.58,7a5.84,5.84,0,0,0,.52-.6l.16.12a3.43,3.43,0,0,1-.85.93,1,1,0,0,1-.55.18.46.46,0,0,1-.35-.13.48.48,0,0,1-.14-.35,3,3,0,0,1,.16-.8l.81-2.83H68.6l.05-.19a2.37,2.37,0,0,0,.9-.44,4.21,4.21,0,0,0,.79-1Z"/><path class="cls-1" d="M73.67.59,72.3,5.33a9.32,9.32,0,0,1,1.39-1.77,1.44,1.44,0,0,1,1-.44.5.5,0,0,1,.39.16.61.61,0,0,1,.16.43,2.93,2.93,0,0,1-.14.78l-.6,2c-.07.25-.11.39-.11.41a.16.16,0,0,0,0,.12.13.13,0,0,0,.1,0A.24.24,0,0,0,74.62,7a3,3,0,0,0,.56-.6l.15.09a3.59,3.59,0,0,1-.46.57,2.4,2.4,0,0,1-.51.43.79.79,0,0,1-.38.12.4.4,0,0,1-.29-.11.41.41,0,0,1-.12-.3,3.78,3.78,0,0,1,.17-.8l.56-1.95a2.36,2.36,0,0,0,.11-.58.2.2,0,0,0-.06-.15.21.21,0,0,0-.16-.06.58.58,0,0,0-.32.11,3.16,3.16,0,0,0-.77.76c-.08.1-.34.5-.78,1.22a3.57,3.57,0,0,0-.34.74l-.31,1h-.73L72.54,2l.18-.61a.29.29,0,0,0-.11-.22.35.35,0,0,0-.26-.1l-.26,0-.11,0V.88Z"/><path class="cls-1" d="M76.93,5.69a3.58,3.58,0,0,0,0,.41,1,1,0,0,0,.3.74,1.05,1.05,0,0,0,.75.3A1.63,1.63,0,0,0,78.63,7a6.15,6.15,0,0,0,1-.64l.1.14a3.24,3.24,0,0,1-2.2,1.15,1.3,1.3,0,0,1-1.08-.45,1.55,1.55,0,0,1-.36-1,2.94,2.94,0,0,1,.45-1.49,3.46,3.46,0,0,1,1.13-1.18A2.62,2.62,0,0,1,79,3.12a1.18,1.18,0,0,1,.77.21.61.61,0,0,1,.25.49,1.21,1.21,0,0,1-.32.78,3,3,0,0,1-1.25.78A6.45,6.45,0,0,1,76.93,5.69Zm0-.23a4.06,4.06,0,0,0,1.18-.29,2.37,2.37,0,0,0,.9-.64,1.17,1.17,0,0,0,.3-.71.42.42,0,0,0-.13-.33.48.48,0,0,0-.37-.13,1.6,1.6,0,0,0-1,.53A3.17,3.17,0,0,0,77,5.46Z"/><path class="cls-1" d="M83.63,7.54V.14h2.68c1.58,0,3,.42,3,2.37s-1.56,2.4-3,2.4h-1V7.54Zm1.62-3.89h1.1c1,0,1.39-.39,1.39-1.1s-.37-1.08-1.39-1.08h-1.1Z"/><path class="cls-1" d="M91.14,7.54V.14h2.77c1.82,0,2.91.65,2.91,2.29a2,2,0,0,1-1.54,2.11l1.65,3H95.21L93.67,4.75h-.94V7.54Zm1.59-4h1.11c.94,0,1.39-.27,1.39-1s-.45-1-1.39-1H92.73Z"/><path class="cls-1" d="M98.49,3.84c0-2.6,1.7-3.84,3.48-3.84s3.48,1.24,3.48,3.84-1.7,3.84-3.48,3.84S98.49,6.44,98.49,3.84Zm5.34,0c0-1.55-.72-2.49-1.86-2.49s-1.85.94-1.85,2.49.7,2.53,1.85,2.53S103.83,5.39,103.83,3.84Z"/><path class="cls-1" d="M107.39,7.54V.14h2.14l1.65,5.44h0L112.74.14h2.2v7.4h-1.57v-5h0a13.26,13.26,0,0,1-.41,1.65l-1.11,3.4h-1.44l-1.09-3.4a11.71,11.71,0,0,1-.43-1.73h0V7.54Z"/><path class="cls-1" d="M117.3,7.54V.14h1.62v7.4Z"/><path class="cls-1" d="M120.87,5.86l1.23-.73a2.18,2.18,0,0,0,2,1.26c.75,0,1.29-.28,1.29-.85s-.53-.8-1.5-1.07c-1.32-.37-2.69-.71-2.69-2.26,0-1.38,1.08-2.21,2.66-2.21a3.32,3.32,0,0,1,2.94,1.52l-1.13.86a2.2,2.2,0,0,0-1.82-1c-.69,0-1.07.3-1.07.74,0,.59.55.8,1.52,1.07,1.3.35,2.68.76,2.68,2.29,0,1.19-.9,2.25-3,2.25A3.31,3.31,0,0,1,120.87,5.86Z"/><path class="cls-1" d="M128.94,7.54V.14h5V1.5h-3.41V3.09H133V4.38h-2.47V6.22h3.59V7.54Z"/></svg>