<svg id="Layer_1" data-name="Layer 1" xmlns="http://www.w3.org/2000/svg" viewBox="0 0 231.65 230.63"><defs><style>.cls-1{fill:#fff;opacity:0.6;}</style></defs><path class="cls-1" d="M27.59,230.63c.54-112.06,91.86-203,204-203h0V0h0C104.24,0,.55,103.38,0,230.63Z"/><path class="cls-1" d="M206.54,194.92a44.18,44.18,0,0,1,16.86-7V105.2a44.48,44.48,0,0,1-36.25-43.48A175.91,175.91,0,0,0,61.72,187.17a44.49,44.49,0,0,1,43.48,36.25h82.73a44.25,44.25,0,0,1,7-16.86l-29.68-29.68a24.35,24.35,0,0,1-32.49-32.5h0l0,0a24.51,24.51,0,0,1,11.61-11.61h0a24.34,24.34,0,0,1,32.5,32.49Z"/></svg>