<svg id="Layer_1" data-name="Layer 1" xmlns="http://www.w3.org/2000/svg" viewBox="0 0 792 140"><defs><style>.cls-1{fill:#fff;}.cls-2{fill:#a81d35;}.cls-3{font-size:24px;fill:#0477bd;font-family:BentonSans-Light, BentonSans;font-weight:300;}.cls-4{letter-spacing:-0.01em;}.cls-5{letter-spacing:-0.03em;}.cls-6{letter-spacing:-0.01em;}.cls-7{letter-spacing:-0.03em;}.cls-8{letter-spacing:-0.1em;}.cls-10,.cls-9{font-size:22px;}.cls-9{letter-spacing:-0.02em;}.cls-10{letter-spacing:-0.01em;}.cls-11{letter-spacing:-0.04em;}.cls-12{letter-spacing:-0.03em;}</style></defs><rect class="cls-1" width="792" height="140"/><polygon class="cls-2" points="80.48 41.69 80.48 47.42 84.44 47.42 84.44 79.32 76.06 79.32 76.06 37.31 80.51 37.31 80.51 31.58 59.62 31.58 59.62 37.31 64.07 37.31 64.07 79.32 55.6 79.32 55.6 47.42 59.56 47.42 59.56 41.69 39.9 41.69 39.9 47.42 44.34 47.42 44.34 84.36 51.56 91.73 64.07 91.73 64.07 100.25 59.63 100.25 59.63 107.62 80.5 107.62 80.5 100.25 76.06 100.25 76.06 91.73 88.47 91.73 95.7 84.36 95.7 47.42 100.15 47.42 100.15 41.69 80.48 41.69"/><text class="cls-3" transform="translate(125.85 63.86)"><tspan class="cls-4">CE<tspan class="cls-5" x="30.46" y="0">R</tspan><tspan class="cls-6" x="45.65" y="0">TIFI</tspan><tspan class="cls-7" x="85.73" y="0">C</tspan><tspan class="cls-8" x="101.49" y="0">A</tspan><tspan class="cls-6" x="115.01" y="0">TE </tspan><tspan class="cls-9" x="148.44" y="0">o</tspan><tspan class="cls-10" x="160.54" y="0">f</tspan></tspan><tspan class="cls-11" x="0" y="28.8">A</tspan><tspan x="14.95" y="28.8">CHI</tspan><tspan class="cls-6" x="55.41" y="28.8">E</tspan><tspan x="69.5" y="28.8">VEMEN</tspan><tspan class="cls-12" x="152.11" y="28.8">T</tspan></text></svg>